<?xml version="1.0" encoding="UTF-8"?>
<svg version="1.1" viewBox="0 0 1024 1024" width="1024" height="1024" xmlns="http://www.w3.org/2000/svg">
<path transform="translate(459,288)" d="m0 0h25l35 3-1 3h-2l-2 4-4 7-3 10-10 50-4 13 13-16 15-20 14-17 9-10 8-8 17-11 17-6h6l2 2-9 4-5 4h-2l-2 4-8 10-14 24-5 8-2 2 7 3 5 4 9 19 11 32 7 14 5 7 7 4h12l3-1-2 4-10 5-9 1-9-2-9-6-7-9-7-14-12-34-8-15v11l-5 21-7 7-6 3h-3l1-12 7-24 5-14 13-23 7-13h-1l-9 10-10 13-14 19-10 13-3 4h-2l-2 4-9 10-10 10-14 9-3-1 4-6 7-14 6-21 4-21 5-24 2-7-10 15-10 17-13 24-8 12-9 12-11 12-10 8-16 8-7 2h-22l-10-5-5-6-1-3v-8l2-3 6 12 6 4 8 2h9l14-3 10-5 10-8 8-8 11-15 9-15 13-23 7-11 12-17 11-12 6-5-15-2h-22l-19 3-11 4-14 8-10 9-6 10-2 6v13l3 5v2l5 2 9 2 3 1-2 2-4 1h-11l-8-4-5-6-2-5v-11l4-12 8-11 10-9 15-8 17-5zm97 21 1 2z" fill="#245956"/>
<path transform="translate(165,494)" d="m0 0h20l8 16 8 17 10 19 1 2 9-20 13-29 2-5h20l-4 3-3 3v61l2 3 4 2v1h-24l5-6v-52l-15 34-9 20-2 4-4-2-14-29-13-27 1 49 2 5 5 3v1h-23l5-4h2l2-11v-50l-2-4-6-3z" fill="#245956"/>
<path transform="translate(474,494)" d="m0 0h29l-5 4 2 5 10 16 3 3 9-11 6-9-1-5-2-3h22l-4 3-8 7-10 12-8 10 1 5 11 16 10 14 7 5v1l-19 1-4-1 1-6-8-12-7-11-4 4-9 12-3 6 1 4 3 3h-22l1-2 5-3 9-10 9-11 6-9-7-10-8-12-7-9-9-6z" fill="#245956"/>
<path transform="translate(648,518)" d="m0 0h11l4 1 16 1-4 4-4 1-2-1 3 7v8l-3 6-5 4-7 3-14 2v4l3 1 18 1 7 3 4 4 1 2v7l-3 6-8 7-7 2-11 1-10-2-5-3-3-6 1-8 7-7-4-5 2-6 6-4-6-4-4-8v-7l4-8 6-4zm2 4-6 3-3 6v7l3 6 4 3 7 1 6-5 1-3v-9l-4-7-5-2zm-5 45-5 3-1 1v9l4 5 6 2h7l7-3 3-4 1-5-2-5-7-3z" fill="#245956"/>
<path transform="translate(375,518)" d="m0 0h8l5 1 15 1-3 4-4 1 2 5v10l-3 5-6 5-6 2-11 2-2 1v3l2 1 18 1 7 3 5 5v10l-4 6-9 6-15 2-9-2-6-4-3-5v-6l3-5 5-4-4-4v-6l5-4h3v-2l-5-2-5-6-1-3v-7l3-6 7-6zm1 4-5 2-3 4-1 7 3 9 4 3 7 1 5-3 2-4v-11l-4-6zm-3 45-5 2-2 3v8l4 5 5 2h7l7-3 4-5v-6l-5-5-4-1z" fill="#245956"/>
<path transform="translate(324,518)" d="m0 0h9l5 1h15l-1 4-7 1 3 7v8l-3 6-5 4-8 3-11 2-2 5 20 1 7 2 5 5 1 9-3 6-7 6-8 3-10 1-10-2-7-5-1-2v-9l3-5 5-3-4-3v-7l5-4 2-1-6-4-3-5-1-9 4-8 6-5zm2 4-5 2-3 4v12l3 5 5 3 7-1 4-5 1-3v-7l-3-7-6-3zm-4 45-5 2-2 3v8l4 5 5 2h8l6-2 4-5v-9l-4-3-6-1z" fill="#245956"/>
<path transform="translate(187,606)" d="m0 0h638v2h-636z" fill="#245956"/>
<path transform="translate(683,494)" d="m0 0h61v13l-2 1-4-6-6-2-13-1 1 63 5 3v2h-23l4-4 1-27v-37l-13 1-8 4-2 3h-2v-12z" fill="#245956"/>
<path transform="translate(587,518)" d="m0 0 3 2 1 4 5-4 5-2h9l6 3 4 6 1 3 1 31 4 6-3 1h-16v-3h2l1-4v-28l-3-6-2-1h-7l-5 3-2 4v28l5 6-5 1-16-1v-2l3-2 1-11v-21l-1-4-4-3 6-4z" fill="#245956"/>
<path transform="translate(276,518)" d="m0 0h10l6 3 4 5 2 10 1 26 4 1-1 3-4 2h-7l-3-3v-3l-8 5-3 1h-9l-6-4-2-4v-7l3-5 6-4 17-7v-8l-2-4-9-1-4 1-1 7-2 2h-5l-2-3 1-5 5-5zm9 24-12 6-2 3v7l4 3h6l6-5 1-14z" fill="#245956"/>
<path transform="translate(752,518)" d="m0 0h9l8 3 4 6 1 5 1 29 5 2-4 4-2 1h-7l-3-4v-2l-8 5-3 1h-9l-6-5-2-7 3-7 6-5 16-7h2l-1-9-4-4h-7l-3 2-2 6-2 2-5-1-1-1 1-7 6-5zm9 24-11 6-3 3v7l4 3h6l6-4v-15z" fill="#245956"/>
<path transform="translate(548,384)" d="m0 0h2l1 2v6l-6 7-8 7-13 10-17 11-16 8-15 6-12 3-7 1h-13l-12-3-6-4-1-3 9 2 6 1h13l18-4 15-6 14-7 16-11 16-12 11-10z" fill="#245956"/>
<path transform="translate(449,518)" d="m0 0h8l8 3 5 6 2 4v8l-1 1h-30l2 10 4 6 5 3h11l8-4 3 1-4 6-5 4-5 2h-13l-8-4-6-8-3-8v-10l3-9 7-8zm-1 5-5 4-2 5v4h21l-1-8-5-5z" fill="#245956"/>
<path transform="translate(803,519)" d="m0 0 2 2-2 1 1 5 7 9 9-11-1-3-2-2h18l-4 3-8 7-8 10 2 5 10 14 7 6 2 2-4 1-16-1v-5l-9-12v-2h-2l-2 4-5 8 1 5 2 2h-18l5-5 8-9 6-9-4-7-5-7v-2h-2l-8-8z" fill="#245956"/>
<path transform="translate(647,322)" d="m0 0h14l11 3v3l-8-1h-11l-16 4-17 8-19 12-28 21-4 1-1-2v-6l10-9 13-9 11-7 16-9 19-7z" fill="#245956"/>
<path transform="translate(560,519)" d="m0 0 4 1 1 44 4 1v2h-20l3-4 1-5v-27l-2-5-2-1v-2z" fill="#245956"/>
<path transform="translate(417,519)" d="m0 0 4 1 1 40 2 4 2 1-1 3-19-1 1-2h2l1-5v-30l-2-4-2-2 8-4z" fill="#245956"/>
<path transform="translate(534,411)" d="m0 0 4 2 7 5 9 1h3v2l-11 4-11-1-8-5 1-3z" fill="#245956"/>
<path transform="translate(360,626)" d="m0 0 5 1 2 2-1 4-2 3h3 2l1 7 1 3h-4v-2l-4 2h-6l-4-5 4-8-1-3zm0 3v4l4-1-1-3zm-1 8-2 4 1 2 6-1v-2z" fill="#245956"/>
<path transform="translate(532,628)" d="m0 0 5 1 6 9 1-10 4 1-1 17-4-1-7-9-1 10h-4v-17z" fill="#245956"/>
<path transform="translate(484,628)" d="m0 0h4l7 10 1-10h3v18l-4-1-7-9-1 10h-4v-17z" fill="#245956"/>
<path transform="translate(615,628)" d="m0 0h9l4 4-2 5 1 4 3 5h-5l-4-6-2-1v7h-4zm4 3v5l5-1-1-4z" fill="#245956"/>
<path transform="translate(447,628)" d="m0 0h6l5 4 1 6-3 6-3 2h-6l-5-3-1-2v-8l4-4zm1 3-4 4 1 6 3 2 5-1 2-3v-5l-3-3z" fill="#245956"/>
<path transform="translate(463,628)" d="m0 0h4v14h5l1-1 1-13h4v13l-5 5h-6l-4-4z" fill="#245956"/>
<path transform="translate(389,628)" d="m0 0h5l7 18-5-1-2-3h-6l-2 4h-4l2-6zm2 4-2 6h4l-1-6z" fill="#245956"/>
<path transform="translate(558,628)" d="m0 0h7l2 2v3l-10-1-1 5 3 5 5 1-1-6h5v7l-3 2h-7l-5-4-1-2v-7z" fill="#245956"/>
<path transform="translate(314,628)" d="m0 0 4 1 6 15v2l-5-1v-3h-8l-1 4-4-1 7-16zm0 6-1 4 4 1-1-5z" fill="#245956"/>
<path transform="translate(599,628)" d="m0 0h11l1 3h-8v5l6-1 1 3-1 1h-6v4h7l1 3h-12z" fill="#245956"/>
<path transform="translate(326,628)" d="m0 0h5l2 6h2l2-5 5-1-3 5-2 4 5 7v2l-5-1-4-4-3 5-4-1 4-6-1-5-3-4z" fill="#245956"/>
<path transform="translate(679,628)" d="m0 0h11v3h-7v5l5-1v4h-4l-1 4h7v3h-11z" fill="#245956"/>
<path transform="translate(586,628)" d="m0 0h7l1 4h-7l-1 2 7 2 2 3-1 5-2 2h-7l-3-2 1-3 7 1-1-3-6-3-1-5z" fill="#245956"/>
<path transform="translate(409,628)" d="m0 0h7l3 2-1 3-8-1-2 2 1 7 6 1 4-1-1 4-2 1h-7l-5-4-1-2v-6l4-5z" fill="#245956"/>
<path transform="translate(631,628)" d="m0 0h4l4 11 4-11h4l-1 5-5 13h-4l-6-15z" fill="#245956"/>
<path transform="translate(697,628)" d="m0 0h7l1 4h-6v2l6 3 1 1v6l-3 2h-6l-3-2v-3l7 1v-3l-6-3-1-5z" fill="#245956"/>
<path transform="translate(428,628)" d="m0 0h7l2 1-1 4-7-1-2 1v7l2 2 8-1v4l-9 1-4-2-2-3v-8l4-4z" fill="#245956"/>
<path transform="translate(411,501)" d="m0 0h8l2 3v6l-3 3h-6l-3-3v-6z" fill="#245956"/>
<path transform="translate(555,501)" d="m0 0h7l2 2v7l-3 3h-6l-3-3v-6z" fill="#245956"/>
<path transform="translate(665,628)" d="m0 0h7l2 4h-8l-2 2v6l2 2 8-1v4l-2 1h-7l-5-4-1-2v-6l4-5z" fill="#245956"/>
<path transform="translate(504,628)" d="m0 0h14v3h-5v15h-4v-15h-6z" fill="#245956"/>
<path transform="translate(297,627)" d="m0 0h9v3h-5v16h-4v-16h-6v-2z" fill="#245956"/>
<path transform="translate(726,634)" d="m0 0h44l-1 2h-43z" fill="#245956"/>
<path transform="translate(232,634)" d="m0 0h42l-1 2h-41z" fill="#245956"/>
<path transform="translate(522,628)" d="m0 0h4v18h-4z" fill="#245956"/>
<path transform="translate(651,628)" d="m0 0h3l1 18-5-1v-16z" fill="#245956"/>
</svg>
